PathFileType	4	(X/Y/Z)	/Users/visionmauri/Downloads/Videos/OAW12-top_Sports2D/OAW12-top_Sports2D_m_person00.trc
DataRate	CameraRate	NumFrames	NumMarkers	Units	OrigDataRate	OrigDataStartFrame	OrigNumFrames
25.0	25.0	11	22	m	25.0	216	1729
Frame#	Time	Hip			RHip			RKnee			RAnkle			RBigToe			RSmallToe			RHeel			LHip			LKnee			LAnkle			LBigToe			LSmallToe			LHeel			Neck			Head			Nose			RShoulder			RElbow			RWrist			LShoulder			LElbow			LWrist			
		X1	Y1	Z1	X2	Y2	Z2	X3	Y3	Z3	X4	Y4	Z4	X5	Y5	Z5	X6	Y6	Z6	X7	Y7	Z7	X8	Y8	Z8	X9	Y9	Z9	X10	Y10	Z10	X11	Y11	Z11	X12	Y12	Z12	X13	Y13	Z13	X14	Y14	Z14	X15	Y15	Z15	X16	Y16	Z16	X17	Y17	Z17	X18	Y18	Z18	X19	Y19	Z19	X20	Y20	Z20	X21	Y21	Z21	X22	Y22	Z22
216	8.645	2.996626773958229	0.34730797755196585	0.0301	2.983749729179263	0.30738148884573746	0.0301	3.1543601689664755	0.24009765780619904	0.129	3.2444335879416375	0.19452501597418323	0.023	3.318407250822285	0.17733899814736825	0.2179	3.299742354624055	0.15891221888703286	0.1804	3.2533542374238364	0.19058159322928264	-0.0119	3.0091659729277205	0.38317998394784475	0.0301	3.172989495221814	0.2999549202923621	0.129	3.3031949912816496	0.2424351330543614	0.023	3.3648822214382084	0.2096126035497167	0.2179	3.365163676973371	0.23523455671901664	0.1804	3.319533268281026	0.23046531237739026	-0.0119	2.782092147894873	0.44241257678255735	0.0008	2.6832513408082312	0.4921450379630114	0.0655	2.7627870882551178	0.45294628794338365	0.1076	2.7814678607079815	0.3662783220554257	-0.01275	2.8886169684919984	0.2880022190662956	0.0702	2.9871517559452547	0.24363934623085293	0.1076	2.836317059292601	0.4969121266949544	-0.01275	2.9659214564674534	0.46687500432743456	0.0702	3.0691319953899425	0.4313185453266747	0.1076
217	8.685023148148147	2.997530548171607	0.34997249961766025	0.0301	2.9834820570892346	0.30927462321034527	0.0301	3.156079830694905	0.24039164001664545	0.129	3.242375184026757	0.19476059999121484	0.023	3.3196777805576665	0.17808739521473918	0.2179	3.300703295585994	0.15929487093218656	0.1804	3.250633767287419	0.19041065487860334	-0.0119	3.010175798424892	0.3862133655915685	0.0301	3.175271851630761	0.30064482498935124	0.129	3.3036891881877684	0.2423074836821452	0.023	3.3651309674955003	0.20962319779731461	0.2179	3.3652622581337384	0.2351294470835202	0.1804	3.320599684052486	0.22991584796287445	-0.0119	2.7846102064042606	0.44492490277910857	0.0008	2.6862678421678208	0.49413367691876847	0.0655	2.7658269667230826	0.45519092252330384	0.1076	2.782771929192327	0.36937404517983835	-0.01275	2.889179115076424	0.29120170100416504	0.0702	2.988110919165915	0.24419476723074354	0.1076	2.8384543150534114	0.49937725783734094	-0.01275	2.9687505594287025	0.46878247842088555	0.0702	3.0707481683668365	0.4346435304167915	0.1076
218	8.725046296296297	2.9982071777379717	0.3523394322943135	0.0301	2.9843488830807243	0.3104370908593832	0.0301	3.1584305290966603	0.24086223117686567	0.129	3.239301979891451	0.19556562775846684	0.023	3.3196637733083505	0.17841400988779152	0.2179	3.3009064253950315	0.1601701572037098	0.1804	3.247015592566924	0.19056057162378362	-0.0119	3.012971659570753	0.3884424278098062	0.0301	3.177415065589533	0.3022335734500223	0.129	3.3034745653297177	0.2422708745301121	0.023	3.3648569241429023	0.21025289693980237	0.2179	3.364848886002919	0.23507504359055745	0.1804	3.319867263804381	0.22964115349293981	-0.0119	2.7854482351950303	0.44801635856909955	0.0008	2.6849272743865353	0.4962474279405612	0.0655	2.765881799282517	0.4576508521249169	0.1076	2.782642644077547	0.3720277309556675	-0.01275	2.8895965806630297	0.29375362857496845	0.0702	2.9862719474728534	0.24461222788644357	0.1076	2.839187963007829	0.5026452688342413	-0.01275	2.9694624700854284	0.4716630350719569	0.0702	3.071043098940509	0.43850841145869635	0.1076
219	8.765069444444444	2.998864056428891	0.35418918193742527	0.0301	2.98477540251267	0.31213271025653344	0.0301	3.1591732314596888	0.24191530122911817	0.129	3.237010348842521	0.19654734520156456	0.023	3.3195852910763106	0.17855063842854288	0.2179	3.3011579182209485	0.16052204765219802	0.1804	3.242293010404174	0.1923361834908305	-0.0119	3.014307638945491	0.39079545256368786	0.0301	3.1785911980322665	0.30503874135956827	0.129	3.3038331611384146	0.24232689543333277	0.023	3.365866285111347	0.21051034482197417	0.2179	3.3657756704851423	0.23478490595629203	0.1804	3.3194300246465076	0.22925668986156417	-0.0119	2.7857610620267796	0.4519539412343963	0.0008	2.6839886673958926	0.4998519006086105	0.0655	2.765606578528383	0.46071285803160994	0.1076	2.7828304375810786	0.37437554470301915	-0.01275	2.8908013005419475	0.29487983748085794	0.0702	2.984931640652988	0.24510937872399394	0.1076	2.84012957070853	0.5064345171594148	-0.01275	2.970376034289086	0.47555504553955674	0.0702	3.073002907092752	0.44258405285936436	0.1076
220	8.805092592592592	2.999646190082694	0.3558738724505334	0.0301	2.9851398899504358	0.3141175317484378	0.0301	3.1597261796428135	0.243348754747453	0.129	3.237652901408166	0.1971264006636529	0.023	3.3210329996233536	0.17799222746491497	0.2179	3.302459168486294	0.15982889629908262	0.1804	3.2418249098756156	0.19316219840461477	-0.0119	3.0141331583994684	0.39310102421989296	0.0301	3.179944617014118	0.30695493259315626	0.129	3.3048408022113724	0.24261223610600063	0.023	3.366837507220455	0.20973546435947987	0.2179	3.3674992000798105	0.2341558314352859	0.1804	3.3198573813851033	0.22896219433172157	-0.0119	2.7860844014566792	0.45494749922791855	0.0008	2.6860831624463035	0.5026493217859204	0.0655	2.7666955076701853	0.4634723003150675	0.1076	2.783451429728599	0.3765531977323578	-0.01275	2.8920404959048813	0.29582092494771345	0.0702	2.985287080492145	0.24544931191036862	0.1076	2.84166318906809	0.50959430395092	-0.01275	2.9721950846281713	0.47883662841242774	0.0702	3.0760957135698286	0.4463490492271405	0.1076
221	8.845115740740741	3.000365585584744	0.35706499124097935	0.0301	2.986031247465228	0.31533646179613767	0.0301	3.1617771071631133	0.24448896456199823	0.129	3.2425942992670986	0.19671033674591612	0.023	3.3248118462234553	0.176300846705715	0.2179	3.30555361967996	0.1586794662296867	0.1804	3.249561740947432	0.19091014802055326	-0.0119	3.0149395137514934	0.39405163472364957	0.0301	3.1817566819283676	0.3071270439544267	0.129	3.3053581926441	0.24237052906296247	0.023	3.366331107167783	0.20799670237959159	0.2179	3.3681549803040856	0.23274145501914148	0.1804	3.31941236444155	0.228998524161213	-0.0119	2.7854365583677607	0.45645932817532525	0.0008	2.687296028332178	0.5035976173460036	0.0655	2.7672062948221785	0.4654334821183261	0.1076	2.7833874247568806	0.3787084806033821	-0.01275	2.8915787142046705	0.2980077927618028	0.0702	2.985310895038467	0.2455277056310124	0.1076	2.842035282469604	0.5116028673795865	-0.01275	2.9734715730579824	0.4809350553790399	0.0702	3.0778523794429025	0.44906242204527747	0.1076
222	8.88513888888889	3.001390523684359	0.357673587830146	0.0301	2.987306328444488	0.3161999517689361	0.0301	3.1645223936389426	0.2453973113851461	0.129	3.2516843799660835	0.1944092927254018	0.023	3.3306061045879796	0.1736553635558668	0.2179	3.3113783048216074	0.15669106314535686	0.1804	3.262414793579681	0.18671074495776643	-0.0119	3.016793956994101	0.39369359980585805	0.0301	3.182855547974829	0.3071056039487584	0.129	3.30490842905581	0.24145658212864693	0.023	3.3654052795170584	0.2064665507036852	0.2179	3.3675517454979733	0.23096118181406938	0.1804	3.317417182674131	0.2288369302537635	-0.0119	2.7845844165113243	0.4580233210340277	0.0008	2.685549170682556	0.5044612044710082	0.0655	2.766919587725334	0.46690966408210455	0.1076	2.7833186324509933	0.38088645283268047	-0.01275	2.8903430738197127	0.30027790016116823	0.0702	2.9849291831904377	0.24493332600344334	0.1076	2.841472119350496	0.5132770039155559	-0.01275	2.9736668085526863	0.4833231115543969	0.0702	3.0783390101638624	0.45075937204873656	0.1076
223	8.925162037037037	3.0030944178572545	0.3587934735348517	0.0301	2.988905172791452	0.31803006696506675	0.0301	3.1664813292462664	0.2472233722485753	0.129	3.262718204573184	0.1905265603681286	0.023	3.3385226608161367	0.17034596600786744	0.2179	3.320912091788874	0.15293078322134554	0.1804	3.274651299011135	0.18216367879118447	-0.0119	3.017785711466399	0.3943548539270407	0.0301	3.1827464286625573	0.30822163171112893	0.129	3.3041297582108973	0.24099859418204023	0.023	3.3658987483256984	0.2060220873710615	0.2179	3.3670265072373904	0.23037965271457791	0.1804	3.315729881139413	0.2283914091648962	-0.0119	2.7855089961605732	0.4602509257789066	0.0008	2.684344110419021	0.5061118552860256	0.0655	2.7682282170198578	0.46865742503885305	0.1076	2.784548834406866	0.38285317789062917	-0.01275	2.891218709243424	0.3012507232621199	0.0702	2.986971809438497	0.24343545331411184	0.1076	2.841955035130311	0.5154352744091151	-0.01275	2.974000295763903	0.4864995678193907	0.0702	3.0803738191558443	0.4515393737769009	0.1076
224	8.965185185185184	3.0049989067869363	0.3603230924552666	0.0301	2.9902896201232423	0.3204643554861103	0.0301	3.1674997603769945	0.24963830734060044	0.129	3.273613370881356	0.18696990932915303	0.023	3.3485242339562533	0.16703273668328303	0.2179	3.332119431129803	0.14873124040532806	0.1804	3.2857691848627772	0.17826437435459594	-0.0119	3.018428205002862	0.3964982944107677	0.0301	3.184116385465433	0.30925996445107257	0.129	3.3035695832297884	0.2409849042484059	0.023	3.367253090966284	0.20590908697145607	0.2179	3.366899637187592	0.2310445679432212	0.1804	3.315999693284918	0.22830863872656498	-0.0119	2.787384615311067	0.46183303772157147	0.0008	2.6852470459577975	0.5074287237975826	0.0655	2.7705771938322195	0.4702932367008392	0.1076	2.786406945972448	0.384243160976822	-0.01275	2.894051323176603	0.30185689539547417	0.0702	2.9908202493865605	0.2418105038311621	0.1076	2.8431799866649623	0.5173863785622498	-0.01275	2.975036230984516	0.4887968078919735	0.0702	3.083417272198551	0.45167402597930056	0.1076
225	9.005208333333334	3.00635597848487	0.36063249098082817	0.0301	2.991164321330227	0.32178302684630994	0.0301	3.168040698344582	0.25087516291557005	0.129	3.283128825349039	0.18536375209812728	0.023	3.358296666887463	0.16491181772294677	0.2179	3.3408838146108217	0.1464277853944527	0.1804	3.2976041561994958	0.17619041756312304	-0.0119	3.0205476503119275	0.39764012288334044	0.0301	3.1888120909141597	0.3083565293761433	0.129	3.3032692143501947	0.24031682969311674	0.023	3.3675698193893	0.20574393036369476	0.2179	3.3667563511292666	0.2314284445063441	0.1804	3.317756662357297	0.22830599641409058	-0.0119	2.788606546390645	0.4620046450753661	0.0008	2.6853478511218314	0.5079863014745045	0.0655	2.77147133831917	0.47049961348442937	0.1076	2.7877251891320967	0.38507858636686054	-0.01275	2.895900309455045	0.3029282642169332	0.0702	2.992505205820755	0.2412330086571079	0.1076	2.84410468312388	0.5180097248290781	-0.01275	2.976816999519494	0.48938532674019825	0.0702	3.08468272495286	0.4515570972050014	0.1076
226	9.045231481481482	3.0075270534999743	0.35953583221134444	0.0301	2.992436710013488	0.3213765958937235	0.0301	3.1684358183251784	0.25092902748292467	0.129	3.2901451139244875	0.18531922150585287	0.023	3.365394549059196	0.16452080200052224	0.2179	3.346866151587678	0.14624634906547274	0.1804	3.307975783864143	0.17586413057100447	-0.0119	3.0235579429307617	0.39698625315007846	0.0301	3.1933593356250305	0.30654626993222794	0.129	3.303087098116937	0.23930167881322126	0.023	3.367604196554803	0.20633408189868202	0.2179	3.367281421870739	0.2311697007037552	0.1804	3.3190900390579765	0.22786168495455822	-0.0119	2.790655952682179	0.4611764852240214	0.0008	2.6848069114731024	0.5078627380549622	0.0655	2.7717423958911613	0.46937394413953076	0.1076	2.788598887453677	0.3854706782469293	-0.01275	2.8962461408178455	0.30374254208155455	0.0702	2.992569855988743	0.24167767269290388	0.1076	2.8453197770473073	0.5176560517195191	-0.01275	2.9794282523720104	0.48972909708493995	0.0702	3.085495859712158	0.4512733049712539	0.1076
